<svg xmlns="http://www.w3.org/2000/svg" width="147.685" height="52.364" viewBox="0 0 147.685 52.364">
  <g id="Group_2037" data-name="Group 2037" transform="translate(3019.075 -11333)">
    <g id="Group_2021" data-name="Group 2021" transform="translate(-351.611 792.5)">
      <path id="Path_2844" data-name="Path 2844" d="M1.536-16.992C1.536-6.864,8.208.24,18.384.24c8.5,0,14.544-4.9,16.224-12.576H24.48A6.616,6.616,0,0,1,18.24-8.4c-4.32,0-7.152-3.36-7.152-8.592,0-5.184,2.832-8.544,7.152-8.544A6.616,6.616,0,0,1,24.48-21.6H34.608c-1.68-7.68-7.728-12.576-16.224-12.576C8.208-34.176,1.536-27.072,1.536-16.992ZM39.072,0H48.48V-14.448c0-3.12,1.728-4.944,4.512-4.944,2.688,0,4.416,1.824,4.416,4.944V0h9.408V-15.7c0-7.056-3.888-11.472-10.032-11.472a9.772,9.772,0,0,0-8.3,4.08V-35.52H39.072ZM72,0h9.408V-26.928H72Zm4.752-29.424c3.312,0,5.472-2.112,5.472-4.8,0-2.736-2.16-4.9-5.472-4.9-3.36,0-5.52,2.16-5.52,4.9C71.232-31.536,73.392-29.424,76.752-29.424Zm19.44,6.24v-3.744H86.784V12.864h9.408V-3.744a8.808,8.808,0,0,0,7.872,4.08c6.432,0,11.472-5.232,11.472-13.824s-5.04-13.776-11.472-13.776C100.32-27.264,97.584-25.584,96.192-23.184Zm9.792,9.7c0,3.6-2.256,5.616-4.9,5.616s-4.9-1.968-4.9-5.616c0-3.6,2.256-5.568,4.9-5.568S105.984-17.136,105.984-13.488Z" transform="translate(-2669 10580)" fill="#fff"/>
      <g id="Group_2017" data-name="Group 2017" transform="translate(-2550.343 10549.56)">
        <path id="Path_1" data-name="Path 1" d="M0-16.78,10.137-26.865v20.34L0,3.518Z" transform="translate(0 26.936)" fill="#fff"/>
        <path id="Path_2" data-name="Path 2" d="M0-16.78,10.137-26.865v20.34L0,3.518Z" transform="translate(20.424 26.936)" fill="#fff"/>
        <path id="Path_3" data-name="Path 3" d="M0,0,14.295.042l.069,28.819L.075,28.8Z" transform="translate(0 10.157) rotate(-45)" fill="#fff" opacity="0.835"/>
      </g>
    </g>
    <ellipse id="Ellipse_349" data-name="Ellipse 349" cx="6.134" cy="5.134" rx="6.134" ry="5.134" transform="translate(-2950 11333)" fill="#4ee6e9"/>
  </g>
</svg>
